<svg version="1.1" id="Layer_1" xmlns="http://www.w3.org/2000/svg" xmlns:xlink="http://www.w3.org/1999/xlink" x="0px" y="0px"
	 width="100%" viewBox="0 0 1024 1024" enable-background="new 0 0 1024 1024" xml:space="preserve">
<path fill="#000000" opacity="1.000000" stroke="none" 
	d="
M291.232910,664.741577 
	C298.424652,670.767639 306.128204,675.424072 313.821289,680.063782 
	C317.052216,682.012451 318.449524,684.395508 318.269592,688.194031 
	C318.009766,693.679688 318.062927,699.191223 318.248657,704.682800 
	C318.368958,708.240601 317.130463,709.896484 313.420898,709.877319 
	C299.260468,709.804199 285.099365,709.882568 270.938568,709.854614 
	C268.017242,709.848877 265.308838,708.943604 263.194733,706.877319 
	C258.518311,702.306641 252.640030,701.126831 246.452301,700.076721 
	C226.412521,696.675659 206.251511,698.615295 186.164948,698.601135 
	C176.422562,698.594299 166.632568,700.841248 158.705597,707.545654 
	C156.688339,709.251831 154.402039,709.918335 151.793167,709.909912 
	C136.965866,709.861938 122.137642,709.943604 107.311371,709.805237 
	C100.577324,709.742432 99.874802,708.857422 100.119415,702.158081 
	C100.301704,697.165710 101.099571,692.145691 100.753944,687.198730 
	C100.433327,682.609619 102.526772,680.581299 106.269844,679.016052 
	C112.250481,676.515137 118.181023,673.881042 124.045349,671.117737 
	C138.982285,664.079529 147.861618,652.553284 152.093643,636.387451 
	C155.230835,624.403748 151.435410,614.523865 146.538712,604.458862 
	C143.471024,598.153137 136.948608,597.486694 131.218796,596.514404 
	C114.989281,593.760498 98.824173,590.745911 83.343575,585.084595 
	C58.571510,576.025391 38.844154,560.039673 22.704157,539.441833 
	C19.397629,535.222046 20.597124,530.134583 21.430429,525.496948 
	C21.911612,522.819031 25.056183,523.033264 27.378590,523.022217 
	C37.541061,522.973816 47.703785,522.976318 57.866421,522.963440 
	C74.193298,522.942688 90.520195,522.931396 106.847054,522.901855 
	C115.316391,522.886536 115.601036,522.883789 115.266983,531.540039 
	C114.916962,540.609924 118.229301,548.421570 122.426102,556.062378 
	C122.816437,556.773010 123.245064,557.521179 124.599648,557.396729 
	C125.554375,552.736755 124.959824,547.952271 125.015182,543.210205 
	C125.092964,536.547302 125.104057,529.881958 125.020004,523.219238 
	C124.977432,519.844666 126.351608,518.611511 129.804596,518.561951 
	C200.755280,517.542908 271.703094,516.233521 342.666718,516.879639 
	C349.916931,516.945679 352.422821,519.683105 352.454559,526.973145 
	C352.476990,532.131653 352.852325,537.288391 352.886810,542.447144 
	C352.935791,549.775940 351.060577,551.901611 343.971130,553.156189 
	C332.322906,555.217590 320.778503,558.084473 310.291138,563.465088 
	C288.127014,574.836609 272.936005,592.274048 268.373627,617.319031 
	C266.300232,628.700684 270.013000,639.370178 276.354248,648.906921 
	C280.325226,654.878967 285.067413,660.269897 291.232910,664.741577 
z"/>
<path fill="#000000" opacity="1.000000" stroke="none" 
	d="
M812.278564,581.647339 
	C814.720642,583.930603 816.881836,585.989990 819.702515,588.677734 
	C819.702515,585.580933 819.804016,582.898743 819.676147,580.227539 
	C819.526489,577.101257 820.729492,575.638245 824.003418,575.688293 
	C831.163879,575.797852 838.329346,575.820557 845.488525,575.673279 
	C849.041992,575.600159 850.191406,577.289551 850.147217,580.534363 
	C850.079163,585.530090 850.159607,590.527771 850.159729,595.524597 
	C850.160645,626.505432 850.323730,657.487732 850.063171,688.466370 
	C849.973022,699.194275 847.531677,709.524902 841.303345,718.623474 
	C832.036194,732.161133 818.194763,738.015259 802.820496,739.920288 
	C788.000854,741.756470 773.137268,740.557129 759.628418,733.148621 
	C749.454041,727.568726 742.309143,719.747131 742.645630,707.081970 
	C742.730347,703.892517 743.804443,702.590881 747.031616,702.636719 
	C754.025330,702.736084 761.022339,702.638611 768.017517,702.570435 
	C769.807983,702.553040 771.368774,702.769348 771.997681,704.762207 
	C774.323975,712.134399 780.747192,714.434753 787.099121,715.336853 
	C804.410278,717.795288 819.391479,708.840210 819.742188,689.011597 
	C819.827271,684.200500 819.754822,679.386597 819.754822,674.330383 
	C816.087830,677.829163 812.484741,681.688049 807.754700,684.119751 
	C786.232727,695.183838 759.297668,688.046387 745.178040,668.285522 
	C729.908508,646.915222 730.826538,608.314270 749.179810,588.780212 
	C765.241821,571.684753 793.529480,566.743408 812.278564,581.647339 
M775.944275,657.575439 
	C786.651062,667.449646 806.463074,665.876038 815.168701,652.168701 
	C822.232056,641.047058 822.353699,621.259705 814.739136,610.469910 
	C803.907166,595.120972 781.152344,595.439453 771.323364,611.114136 
	C763.672119,623.315979 763.866638,645.950867 775.944275,657.575439 
z"/>
<path fill="#000000" opacity="1.000000" stroke="none" 
	d="
M519.757568,369.335663 
	C524.708435,376.067017 526.839294,383.571594 528.728638,391.158569 
	C529.399963,393.854340 528.255859,395.305084 525.383484,395.294434 
	C517.884888,395.266632 510.385834,395.228119 502.887573,395.278839 
	C500.359985,395.295990 499.399536,393.712158 498.738525,391.709412 
	C492.719208,373.470673 467.932709,369.553955 456.046509,376.237335 
	C448.530396,380.463501 445.244629,386.926056 445.338470,395.132202 
	C445.427673,402.929779 450.910461,406.970978 457.310608,409.591278 
	C467.614929,413.809967 478.456787,416.453339 489.081848,419.734161 
	C500.264771,423.187256 511.355713,427.090332 519.450867,436.119843 
	C537.446960,456.192902 534.245361,493.905975 503.057404,506.977142 
	C477.832123,517.549255 452.977325,515.613098 429.674530,500.704712 
	C417.734070,493.065582 411.637360,481.449463 408.985657,467.874634 
	C407.940399,462.523743 409.190674,461.132538 414.500946,461.060242 
	C421.165466,460.969513 427.832336,461.066315 434.497650,461.012848 
	C437.309326,460.990295 438.866577,461.610107 439.511414,464.992432 
	C441.279144,474.264221 447.255280,480.413666 455.996979,483.453979 
	C464.779022,486.508362 473.844055,487.212708 483.012756,484.771179 
	C490.069733,482.891998 496.053467,476.805542 496.747070,470.512299 
	C497.926941,459.806854 495.638733,455.250610 486.878906,450.974335 
	C477.245758,446.271729 466.717804,444.339325 456.564911,441.251251 
	C443.444977,437.260712 430.263672,433.339905 421.252625,421.949249 
	C412.574188,410.979065 411.562408,398.578125 413.997620,385.177338 
	C418.311890,361.435974 444.365234,346.324493 467.404114,346.489349 
	C482.497955,346.597351 496.476807,348.811279 508.834198,357.969788 
	C513.030457,361.079712 516.691772,364.655609 519.757568,369.335663 
z"/>
<path fill="#000000" opacity="1.000000" stroke="none" 
	d="
M120.808594,497.808289 
	C116.460266,502.204315 112.291008,506.283539 108.294113,510.525146 
	C106.184120,512.764343 104.595016,512.854431 102.704552,510.291992 
	C99.246429,505.604645 95.593369,501.061676 92.080994,496.413605 
	C89.378181,492.836853 90.879608,490.004852 93.654205,487.226532 
	C109.888084,470.970795 126.060089,454.653320 142.261505,438.365143 
	C145.078812,435.532715 148.046722,432.841370 150.740662,429.897766 
	C152.857849,427.584351 154.648972,427.322540 157.060822,429.515411 
	C160.258347,432.422577 163.849823,434.901093 167.001282,437.852844 
	C169.669388,440.351868 171.457474,440.064209 173.991364,437.481903 
	C187.404175,423.812775 200.995239,410.318481 214.536682,396.775757 
	C219.751007,391.560913 219.765594,391.575562 225.822769,395.760651 
	C236.432953,403.091644 236.423096,403.081635 245.448456,394.142273 
	C262.244690,377.506073 279.055786,360.884888 295.851562,344.248260 
	C296.777039,343.331543 298.018829,342.638336 298.195404,341.461456 
	C292.957520,335.548737 287.830505,329.761230 282.198792,323.403992 
	C301.225433,319.218262 320.509888,315.926147 339.331055,310.111176 
	C341.119598,314.710724 339.483398,318.524139 338.809235,322.021393 
	C336.077026,336.194336 334.505981,350.531189 332.147308,364.750000 
	C331.934265,366.034210 332.236237,367.598328 330.759338,368.255859 
	C329.003479,369.037598 328.055420,367.549377 326.959045,366.581421 
	C323.503479,363.530731 320.633698,359.805756 316.761230,357.237366 
	C307.990234,365.875061 299.370819,374.156647 290.983948,382.667358 
	C275.091156,398.794739 259.263947,414.988342 243.573639,431.312225 
	C240.403336,434.610504 238.095459,434.827332 234.270279,432.110016 
	C221.662979,423.154175 225.328751,423.187286 214.916016,433.570374 
	C202.420563,446.030212 190.180099,458.751831 178.064774,471.582520 
	C175.099701,474.722717 172.967422,474.992249 169.877884,472.076172 
	C166.980087,469.341125 163.561417,467.155823 160.681656,464.404480 
	C157.884262,461.731720 155.806046,461.881866 153.146469,464.651611 
	C142.535461,475.702057 131.768494,486.602783 120.808594,497.808289 
z"/>
<path fill="#000000" opacity="1.000000" stroke="none" 
	d="
M925.361450,467.402466 
	C918.608337,472.368134 916.287903,478.604431 917.124695,486.643982 
	C917.776550,492.906158 917.154297,499.293274 917.274841,505.621521 
	C917.336060,508.834015 915.981628,510.151581 912.830627,510.124695 
	C905.667664,510.063568 898.502563,510.052582 891.340576,510.163055 
	C887.946838,510.215424 886.570312,508.836365 886.641846,505.397278 
	C886.790710,498.236786 886.680298,491.070923 886.680237,483.907288 
	C886.679993,441.591736 886.678101,399.276215 886.683899,356.960663 
	C886.684875,349.972809 886.701172,349.953705 893.523987,349.911804 
	C899.354614,349.875977 905.198730,350.129791 911.012207,349.808441 
	C915.765686,349.545685 917.394043,351.187012 917.356201,356.050568 
	C917.157837,381.538269 917.263611,407.028381 917.263672,432.517639 
	C917.263672,434.480774 917.263611,436.443878 917.263611,439.784729 
	C920.985352,436.011322 923.890747,433.199341 926.646545,430.247772 
	C936.988098,419.171661 947.333862,408.098419 957.554077,396.910950 
	C960.113403,394.109375 962.907532,392.840057 966.739319,392.937988 
	C974.730225,393.142242 982.730713,392.953979 990.727112,392.982452 
	C992.296265,392.988037 994.397461,392.209167 995.097412,394.298584 
	C995.757996,396.270355 993.713257,397.103271 992.588989,398.231201 
	C979.534668,411.327972 966.459473,424.403870 953.405518,437.501068 
	C952.484741,438.424988 951.689148,439.473785 950.590332,440.748840 
	C966.148560,463.402557 981.632507,485.948120 997.018860,508.351685 
	C995.152771,510.599976 993.192810,510.059113 991.438965,510.072083 
	C983.942566,510.127472 976.441284,509.939606 968.950500,510.149445 
	C965.333923,510.250793 963.238098,508.790771 961.232971,505.869507 
	C951.810059,492.140808 942.147278,478.576630 932.563171,464.958618 
	C932.002441,464.161957 931.609253,463.165833 929.232849,461.731873 
	C928.021362,463.536499 926.809937,465.341125 925.361450,467.402466 
z"/>
<path fill="#000000" opacity="1.000000" stroke="none" 
	d="
M439.000000,530.879578 
	C462.315674,530.880981 485.131317,530.880127 507.946991,530.884827 
	C514.986511,530.886292 515.134033,531.044983 515.125183,538.257751 
	C515.118469,543.753418 514.975586,549.253540 515.151062,554.743347 
	C515.282166,558.843567 513.590454,560.301270 509.518188,560.272339 
	C491.033478,560.140869 472.545929,560.340942 454.062531,560.136414 
	C449.562012,560.086609 447.856689,561.355286 448.000427,566.040039 
	C448.296387,575.689941 448.299347,585.362854 447.980896,595.011719 
	C447.823059,599.793579 449.712372,600.899902 454.119263,600.845825 
	C470.437469,600.645569 486.760773,600.878174 503.079559,600.704041 
	C507.224976,600.659851 508.656250,601.935120 508.359741,606.162903 
	C507.987946,611.464294 508.014313,616.836060 508.417053,622.135803 
	C508.734619,626.315186 507.039948,627.284485 503.273010,627.258179 
	C487.286285,627.146606 471.298157,627.230713 455.310547,627.251160 
	C448.095337,627.260376 448.084290,627.268616 448.083466,634.269653 
	C448.081451,651.256470 447.938782,668.245605 448.191467,685.228760 
	C448.263885,690.094788 446.638947,691.672424 441.871613,691.439026 
	C435.059875,691.105591 428.219635,691.362427 421.391632,691.350464 
	C414.725433,691.338745 414.694702,691.329468 414.692688,684.798218 
	C414.680420,645.162231 414.682983,605.526245 414.681427,565.890259 
	C414.681061,556.564148 414.675507,547.238037 414.688446,537.911926 
	C414.698181,530.889709 414.709625,530.887207 421.513000,530.881958 
	C427.175323,530.877625 432.837677,530.880066 439.000000,530.879578 
z"/>
<path fill="#000000" opacity="1.000000" stroke="none" 
	d="
M969.912842,643.041260 
	C947.104675,643.050354 924.782959,643.052856 902.461243,643.071899 
	C895.934753,643.077515 895.513855,643.372192 897.422607,649.512573 
	C903.244385,668.240845 918.012268,672.804932 934.402710,668.818359 
	C940.271118,667.391052 945.547546,664.395325 948.760071,658.790222 
	C949.690857,657.166260 951.233521,656.731079 953.019348,656.737366 
	C959.682373,656.760803 966.345825,656.769897 973.008606,656.720459 
	C976.549133,656.694153 977.104187,658.184326 976.250793,661.467346 
	C972.383484,676.346069 961.829895,684.796814 948.318237,689.769470 
	C930.114807,696.468872 911.765869,696.551514 894.158691,687.578064 
	C877.714722,679.197388 869.121704,665.135681 865.515686,647.262451 
	C863.151794,635.545227 863.285339,624.089539 866.816284,612.861633 
	C873.125854,592.798462 886.351440,579.589111 907.101440,574.572876 
	C924.207275,570.437622 940.607666,572.366089 955.378845,582.115051 
	C970.250244,591.930054 977.691833,606.301392 978.342468,624.118408 
	C978.476135,627.778442 978.390015,631.447205 978.377563,635.111816 
	C978.350830,642.984497 978.343384,642.984497 969.912842,643.041260 
M916.258972,597.791931 
	C905.070618,600.513184 899.617004,608.386902 896.966187,618.956360 
	C896.218140,621.938904 897.146423,622.985718 899.992004,622.984009 
	C914.614746,622.975220 929.237610,622.958862 943.860229,623.007812 
	C946.907043,623.018005 947.908691,621.588806 947.811523,618.686218 
	C947.325012,604.165771 930.972473,592.881592 916.258972,597.791931 
z"/>
<path fill="#000000" opacity="1.000000" stroke="none" 
	d="
M726.996582,404.982666 
	C743.659546,421.234955 748.891479,440.698029 745.624939,463.044708 
	C742.866394,481.915985 733.737915,496.404694 717.043274,505.685791 
	C702.617798,513.705383 687.047058,514.942139 671.084839,511.782562 
	C648.474609,507.307068 633.849060,493.409363 627.886841,471.619110 
	C620.389648,444.219574 626.840393,413.377625 654.070068,398.147400 
	C667.164795,390.823151 681.400269,388.177704 696.817810,391.164978 
	C708.136597,393.358154 718.087830,397.283600 726.996582,404.982666 
M712.210754,436.208038 
	C708.944885,424.488647 701.831177,417.493774 689.283630,415.786133 
	C676.557556,414.054199 664.651855,420.591400 660.409973,432.698761 
	C655.905151,445.556946 655.895203,458.424377 660.566711,471.203827 
	C664.696594,482.501587 673.351440,488.065552 684.971924,488.557526 
	C694.433960,488.958099 702.812012,485.714081 707.993042,477.230957 
	C715.715637,464.586212 716.317200,450.962952 712.210754,436.208038 
z"/>
<path fill="#000000" opacity="1.000000" stroke="none" 
	d="
M616.634521,582.282288 
	C629.484497,591.281555 637.333252,603.091125 640.570435,618.151611 
	C644.403259,635.984009 642.606323,652.981995 632.836121,668.484497 
	C622.177063,685.397339 606.055420,693.306030 586.367493,694.248779 
	C569.817932,695.041260 554.597229,691.202026 541.939575,680.009277 
	C531.311707,670.611511 525.755066,658.649597 523.415527,644.558228 
	C521.294495,631.782349 522.869263,619.767639 527.310120,607.992615 
	C533.746582,590.926453 546.158386,579.992981 563.636719,575.216370 
	C582.045715,570.185364 599.814392,571.770325 616.634521,582.282288 
M559.628601,610.208557 
	C552.203735,625.319580 551.943848,640.638184 559.107117,655.789429 
	C563.075134,664.182312 570.242615,668.773010 579.589172,669.614563 
	C590.215332,670.571350 599.302307,667.335571 604.751648,657.924622 
	C612.692322,644.211121 613.240662,629.622009 607.553772,614.854187 
	C606.424011,611.920349 604.978821,609.145386 602.959351,606.615417 
	C593.724731,595.046509 568.918701,594.291016 559.628601,610.208557 
z"/>
<path fill="#000000" opacity="1.000000" stroke="none" 
	d="
M757.860107,449.090057 
	C759.174194,421.490295 773.098816,399.034973 800.551453,392.246857 
	C823.387024,386.600311 843.759033,390.746948 859.800842,409.228729 
	C864.918030,415.124207 868.011353,422.034668 869.482361,429.732605 
	C870.102295,432.977112 869.322144,434.408173 865.840881,434.350342 
	C858.512756,434.228699 851.181152,434.275543 843.851379,434.322968 
	C841.454346,434.338470 839.725098,433.762848 838.930664,431.153900 
	C836.052795,421.703705 829.179504,417.098724 819.715332,416.389740 
	C808.995789,415.586700 800.101807,419.454346 795.213684,429.287537 
	C787.819275,444.162262 787.870239,459.549530 795.145569,474.446350 
	C799.793091,483.962463 808.174866,487.687622 818.723755,486.758942 
	C827.873657,485.953400 835.010620,482.138763 838.679565,473.422302 
	C840.253357,469.683533 842.466492,467.940094 846.565796,468.061096 
	C853.057129,468.252777 859.558411,468.082916 866.055176,468.123749 
	C869.213745,468.143585 870.756592,468.828033 869.926086,472.908295 
	C865.458679,494.854980 851.268433,506.509613 830.354614,511.411011 
	C813.715759,515.310486 797.811951,513.710938 783.517700,503.941101 
	C770.628235,495.131439 762.511230,482.892120 759.643433,467.317902 
	C758.559387,461.431061 757.352966,455.598572 757.860107,449.090057 
z"/>
<path fill="#000000" opacity="1.000000" stroke="none" 
	d="
M583.869263,510.486938 
	C567.532166,505.969208 557.855774,493.585327 556.670776,477.096130 
	C555.439148,459.957703 556.170227,442.821289 556.113525,425.687073 
	C556.097229,420.759979 554.777344,419.005096 549.617798,419.130035 
	C536.873962,419.438660 536.868042,419.196075 536.942688,406.611328 
	C537.016968,394.093048 537.020813,393.873291 549.645386,394.088989 
	C554.750061,394.176270 556.397827,392.473907 556.128113,387.465668 
	C555.761658,380.659302 556.135803,373.816376 556.005493,366.992737 
	C555.922058,362.626007 557.723572,361.305267 562.088867,361.532104 
	C569.224121,361.902924 576.411560,361.807343 583.548401,361.403595 
	C587.642456,361.171967 589.011414,362.808746 588.991211,366.504333 
	C588.949280,374.162689 589.182373,381.832581 588.820435,389.474884 
	C588.645752,393.164398 589.905457,394.109802 593.288269,394.011658 
	C599.443542,393.833099 605.609314,394.044159 611.767151,393.917023 
	C615.585693,393.838165 617.207886,395.403198 617.056885,399.281464 
	C616.862793,404.268890 616.927734,409.270416 617.016296,414.263458 
	C617.079224,417.812012 615.635803,419.404602 611.954041,419.304321 
	C605.798218,419.136627 599.632263,419.356140 593.475220,419.213654 
	C590.262085,419.139282 588.997620,420.421844 589.014099,423.612610 
	C589.100830,440.428040 588.984009,457.245026 589.159058,474.059174 
	C589.225830,480.472717 593.712036,484.116852 601.800842,484.713470 
	C605.279053,484.970001 608.791565,484.849182 612.285828,484.773590 
	C615.421387,484.705750 616.787231,485.856537 616.578247,489.234009 
	C616.260132,494.377441 616.299683,499.549133 616.353577,504.707092 
	C616.386414,507.840027 615.302551,509.608673 611.998230,510.239685 
	C602.758850,512.004150 593.538147,512.108887 583.869263,510.486938 
z"/>
<path fill="#000000" opacity="1.000000" stroke="none" 
	d="
M656.774658,660.000000 
	C656.756165,633.667419 656.878723,607.833374 656.603638,582.003479 
	C656.547852,576.770935 658.309631,575.326965 663.220215,575.619568 
	C669.198975,575.975830 675.217407,575.810364 681.213806,575.666504 
	C684.536377,575.586731 686.181213,576.667175 686.014771,580.239075 
	C685.829163,584.220215 685.972168,588.216675 685.972168,592.760986 
	C690.304932,586.494751 694.939880,580.979919 701.669434,577.539490 
	C708.035950,574.284485 714.716003,573.731750 721.584106,574.322693 
	C725.325500,574.644592 727.544312,576.470398 727.353943,580.839905 
	C727.056702,587.660400 727.137939,594.505920 727.307068,601.334656 
	C727.397156,604.971436 726.067322,606.356628 722.370300,606.347534 
	C716.731873,606.333618 711.034729,605.567688 705.449646,606.930176 
	C694.163208,609.683594 688.299377,616.649597 688.171631,628.134766 
	C687.960205,647.131470 687.903137,666.132690 688.084961,685.129028 
	C688.130798,689.918762 686.664246,691.694336 681.808350,691.428467 
	C675.493896,691.082764 669.138123,691.136719 662.816284,691.402710 
	C658.381409,691.589294 656.531433,690.296143 656.734619,685.495056 
	C657.086731,677.177734 656.796265,668.833130 656.774658,660.000000 
z"/>
<path fill="#000000" opacity="1.000000" stroke="none" 
	d="
M328.193787,426.000000 
	C328.199799,450.827423 328.199036,475.154877 328.215149,499.482300 
	C328.220306,507.282867 328.240692,507.274017 320.201385,507.282135 
	C313.369629,507.289062 306.528595,507.110535 299.709473,507.414093 
	C295.280670,507.611206 293.944885,505.934540 293.995117,501.624146 
	C294.305786,474.970703 294.351746,448.314240 294.612579,421.660034 
	C294.687561,413.996674 293.760437,406.367310 294.246704,398.682312 
	C294.467804,395.188171 295.847778,393.995789 299.129242,394.025238 
	C307.126526,394.096954 315.125671,394.080383 323.122925,393.994415 
	C326.980743,393.952911 328.351044,395.656525 328.256744,399.507507 
	C328.044678,408.166992 328.192291,416.835297 328.193787,426.000000 
z"/>
<path fill="#000000" opacity="1.000000" stroke="none" 
	d="
M248.136871,493.703308 
	C248.120758,475.772461 248.079361,458.308197 248.119049,440.844116 
	C248.133652,434.419281 248.381744,434.677032 254.911331,434.369873 
	C262.055054,434.033813 269.191101,435.112671 276.320801,434.130402 
	C280.249817,433.589111 282.003082,435.194122 281.977570,439.452057 
	C281.851959,460.408051 281.914154,481.365662 282.029633,502.322083 
	C282.049835,505.979797 281.227600,507.701508 276.982056,507.510468 
	C268.849304,507.144470 260.683899,507.297913 252.539047,507.507141 
	C249.165054,507.593811 248.128616,506.359772 248.340286,503.127533 
	C248.534714,500.158722 248.229065,497.157166 248.136871,493.703308 
z"/>
<path fill="#000000" opacity="1.000000" stroke="none" 
	d="
M205.491760,457.818146 
	C214.437103,457.797119 222.934372,457.823120 231.429688,457.706573 
	C233.672455,457.675781 235.464233,457.751129 235.451004,460.659058 
	C235.382004,475.815186 235.341904,490.971375 235.268753,506.127472 
	C235.267349,506.417969 234.984100,506.707062 234.380386,507.859711 
	C224.897156,507.859711 214.957153,507.888306 205.017532,507.839050 
	C202.611252,507.827148 201.485870,506.546722 201.501053,504.020050 
	C201.586044,489.860992 201.632385,475.701202 201.569321,461.542206 
	C201.557816,458.955322 202.582397,457.844025 205.491760,457.818146 
z"/>
<path fill="#000000" opacity="1.000000" stroke="none" 
	d="
M170.006332,508.243500 
	C165.688568,508.233459 161.869034,508.199707 158.049835,508.221466 
	C155.617325,508.235352 154.353638,507.201050 154.367737,504.652374 
	C154.398911,499.017059 154.422989,493.379822 154.308167,487.746246 
	C154.246460,484.718933 155.608505,483.645386 158.524277,483.674988 
	C167.324646,483.764343 176.126648,483.746765 184.927582,483.695679 
	C187.742310,483.679352 189.311005,484.675446 189.274216,487.725708 
	C189.208145,493.204865 189.210342,498.686096 189.281464,504.165192 
	C189.320877,507.202118 187.771835,508.268677 184.951843,508.239227 
	C180.136673,508.188904 175.320480,508.236755 170.006332,508.243500 
z"/>
</svg>