<svg xmlns="http://www.w3.org/2000/svg"
    xmlns:xlink="http://www.w3.org/1999/xlink" width="1080" zoomAndPan="magnify" viewBox="0 0 810 809.999993" height="1080" preserveAspectRatio="xMidYMid meet" version="1.0">
    <defs>
        <clipPath id="id1">
            <path d="M 19 58.21875 L 810 58.21875 L 810 751.96875 L 19 751.96875 Z M 19 58.21875 " clip-rule="nonzero"/>
        </clipPath>
    </defs>
    <rect x="-81" width="972" fill="rgb(100%, 100%, 100%)" y="-80.999999" height="971.999992" fill-opacity="0"/>
    <rect x="-81" width="972" fill="rgb(100%, 100%, 100%)" y="-80.999999" height="971.999992" fill-opacity="0"/>
    <rect x="-81" width="972" fill="rgb(100%, 100%, 100%)" y="-80.999999" height="971.999992" fill-opacity="0"/>
    <rect x="-81" width="972" fill="rgb(100%, 100%, 100%)" y="-80.999999" height="971.999992" fill-opacity="0"/>
    <g clip-path="url(#id1)">
        <path fill="rgb(78.039551%, 92.939758%, 90.19928%)" d="M 773.117188 469.746094 C 784.050781 448.984375 790.3125 425.375 790.3125 400.277344 C 790.3125 336.480469 750.25 282.175781 693.976562 260.773438 C 693.976562 260.707031 693.984375 260.640625 693.984375 260.5625 C 693.984375 148.8125 603.417969 58.21875 491.695312 58.21875 C 397.449219 58.21875 318.488281 122.785156 296.023438 210.042969 C 281.804688 205.371094 266.652344 202.75 250.875 202.75 C 176.78125 202.75 115.792969 258.566406 107.441406 330.4375 C 57.3125 341.046875 19.6875 385.523438 19.6875 438.816406 C 19.6875 500.011719 69.285156 549.625 130.464844 549.625 C 132.167969 549.625 133.855469 549.507812 135.53125 549.414062 C 135.492188 551.097656 135.28125 552.746094 135.28125 554.441406 C 135.28125 663.535156 223.691406 751.96875 332.753906 751.96875 C 394.761719 751.96875 450.035156 723.332031 486.242188 678.605469 C 507.222656 700.042969 536.390625 713.425781 568.757812 713.425781 C 613.550781 713.425781 652.3125 687.894531 671.5 650.625 C 681.636719 653.851562 692.414062 655.613281 703.617188 655.613281 C 762.136719 655.613281 809.578125 608.160156 809.578125 549.625 C 809.578125 517.722656 795.417969 489.183594 773.117188 469.746094 Z M 773.117188 469.746094 " fill-opacity="1" fill-rule="nonzero"/>
    </g>
    <path fill="rgb(100%, 100%, 100%)" d="M 130.464844 366.550781 L 111.199219 366.550781 C 108.539062 366.550781 106.382812 364.394531 106.382812 361.734375 C 106.382812 359.074219 108.539062 356.917969 111.199219 356.917969 L 130.464844 356.917969 C 133.125 356.917969 135.28125 359.074219 135.28125 361.734375 C 135.28125 364.394531 133.125 366.550781 130.464844 366.550781 Z M 101.566406 443.636719 L 82.300781 443.636719 C 79.640625 443.636719 77.484375 441.476562 77.484375 438.816406 C 77.484375 436.160156 79.640625 434 82.300781 434 L 101.566406 434 C 104.226562 434 106.382812 436.160156 106.382812 438.816406 C 106.382812 441.476562 104.226562 443.636719 101.566406 443.636719 Z M 130.464844 385.824219 L 82.300781 385.824219 C 79.640625 385.824219 77.484375 383.664062 77.484375 381.003906 C 77.484375 378.347656 79.640625 376.1875 82.300781 376.1875 L 130.464844 376.1875 C 133.125 376.1875 135.28125 378.347656 135.28125 381.003906 C 135.28125 383.664062 133.125 385.824219 130.464844 385.824219 Z M 178.628906 405.09375 L 149.730469 405.09375 C 147.070312 405.09375 144.914062 402.933594 144.914062 400.277344 C 144.914062 397.617188 147.070312 395.457031 149.730469 395.457031 L 178.628906 395.457031 C 181.289062 395.457031 183.445312 397.617188 183.445312 400.277344 C 183.445312 402.933594 181.289062 405.09375 178.628906 405.09375 Z M 43.769531 424.363281 L 24.503906 424.363281 C 21.84375 424.363281 19.6875 422.207031 19.6875 419.546875 C 19.6875 416.886719 21.84375 414.730469 24.503906 414.730469 L 43.769531 414.730469 C 46.429688 414.730469 48.585938 416.886719 48.585938 419.546875 C 48.585938 422.207031 46.429688 424.363281 43.769531 424.363281 Z M 130.464844 405.09375 L 120.832031 405.09375 C 118.171875 405.09375 116.015625 402.933594 116.015625 400.277344 C 116.015625 397.617188 118.171875 395.457031 120.832031 395.457031 L 130.464844 395.457031 C 133.125 395.457031 135.28125 397.617188 135.28125 400.277344 C 135.28125 402.933594 133.125 405.09375 130.464844 405.09375 Z M 72.667969 424.363281 L 63.035156 424.363281 C 60.375 424.363281 58.21875 422.207031 58.21875 419.546875 C 58.21875 416.886719 60.375 414.730469 63.035156 414.730469 L 72.667969 414.730469 C 75.328125 414.730469 77.484375 416.886719 77.484375 419.546875 C 77.484375 422.207031 75.328125 424.363281 72.667969 424.363281 Z M 101.566406 405.09375 L 5.238281 405.09375 C 2.578125 405.09375 0.421875 402.933594 0.421875 400.277344 C 0.421875 397.617188 2.578125 395.457031 5.238281 395.457031 L 101.566406 395.457031 C 104.226562 395.457031 106.382812 397.617188 106.382812 400.277344 C 106.382812 402.933594 104.226562 405.09375 101.566406 405.09375 Z M 178.628906 424.363281 L 91.933594 424.363281 C 89.273438 424.363281 87.117188 422.207031 87.117188 419.546875 C 87.117188 416.886719 89.273438 414.730469 91.933594 414.730469 L 178.628906 414.730469 C 181.289062 414.730469 183.445312 416.886719 183.445312 419.546875 C 183.445312 422.207031 181.289062 424.363281 178.628906 424.363281 Z M 178.628906 424.363281 " fill-opacity="1" fill-rule="nonzero"/>
    <path fill="rgb(99.21875%, 98.81897%, 93.728638%)" d="M 427.867188 487.449219 C 428.621094 484.066406 429.082031 480.972656 429.082031 477.359375 C 429.082031 450.757812 407.515625 429.183594 380.917969 429.183594 C 364.964844 429.183594 350.929688 437.035156 342.175781 448.984375 C 339.976562 421.722656 317.214844 400.277344 289.40625 400.277344 C 260.140625 400.277344 236.425781 424 236.425781 453.269531 C 236.425781 456.988281 236.878906 460.585938 237.621094 464.082031 C 231.675781 460.332031 224.703125 458.089844 217.160156 458.089844 C 198.878906 458.089844 183.648438 470.855469 179.699219 487.9375 C 176.277344 487.398438 172.722656 486.996094 168.996094 486.996094 C 142.398438 486.996094 120.832031 508.570312 120.832031 535.171875 C 120.832031 561.773438 142.398438 583.347656 168.996094 583.347656 C 195.59375 583.347656 274.957031 583.347656 274.957031 583.347656 L 313.488281 583.347656 C 313.488281 583.347656 392.851562 583.347656 419.449219 583.347656 C 446.046875 583.347656 467.613281 561.773438 467.613281 535.171875 C 467.613281 511.449219 450.4375 491.445312 427.867188 487.449219 Z M 427.867188 487.449219 " fill-opacity="1" fill-rule="nonzero"/>
    <path fill="rgb(27.839661%, 16.859436%, 16.079712%)" d="M 419.449219 588.167969 L 168.996094 588.167969 C 139.78125 588.167969 116.015625 564.394531 116.015625 535.171875 C 116.015625 505.949219 139.78125 482.175781 168.996094 482.175781 C 171.308594 482.175781 173.660156 482.3125 176.21875 482.601562 C 182.136719 465.121094 198.394531 453.269531 217.160156 453.269531 C 222.113281 453.269531 227.003906 454.148438 231.667969 455.832031 C 231.628906 454.976562 231.609375 454.117188 231.609375 453.269531 C 231.609375 421.386719 257.53125 395.457031 289.40625 395.457031 C 315.769531 395.457031 338.554688 413.621094 345.199219 438.355469 C 354.890625 429.375 367.460938 424.363281 380.917969 424.363281 C 410.132812 424.363281 433.898438 448.136719 433.898438 477.359375 C 433.898438 479.507812 433.753906 481.570312 433.445312 483.765625 C 456.304688 490.011719 472.429688 510.898438 472.429688 535.171875 C 472.429688 564.394531 448.664062 588.167969 419.449219 588.167969 Z M 168.996094 491.8125 C 145.097656 491.8125 125.648438 511.265625 125.648438 535.171875 C 125.648438 559.078125 145.097656 578.53125 168.996094 578.53125 L 419.449219 578.53125 C 443.347656 578.53125 462.796875 559.078125 462.796875 535.171875 C 462.796875 513.933594 447.75 495.859375 427.019531 492.1875 C 425.730469 491.964844 424.582031 491.214844 423.851562 490.117188 C 423.121094 489.027344 422.867188 487.679688 423.15625 486.398438 C 423.949219 482.878906 424.265625 480.257812 424.265625 477.359375 C 424.265625 453.453125 404.816406 434 380.917969 434 C 367.074219 434 354.371094 440.496094 346.058594 451.835938 C 344.863281 453.464844 342.792969 454.167969 340.855469 453.617188 C 338.917969 453.070312 337.53125 451.371094 337.367188 449.367188 C 335.375 424.539062 314.308594 405.09375 289.40625 405.09375 C 262.847656 405.09375 241.242188 426.707031 241.242188 453.269531 C 241.242188 456.421875 241.597656 459.628906 242.332031 463.089844 C 242.734375 464.988281 241.953125 466.933594 240.367188 468.042969 C 238.785156 469.160156 236.6875 469.207031 235.046875 468.167969 C 229.605469 464.71875 223.410156 462.90625 217.160156 462.90625 C 201.421875 462.90625 187.945312 473.648438 184.390625 489.027344 C 183.820312 491.496094 181.433594 493.113281 178.925781 492.699219 C 175.160156 492.09375 172.011719 491.8125 168.996094 491.8125 Z M 168.996094 491.8125 " fill-opacity="1" fill-rule="nonzero"/>
    <path fill="rgb(27.839661%, 16.859436%, 16.079712%)" d="M 176.21875 539.988281 C 174.890625 539.988281 173.8125 538.910156 173.8125 537.582031 C 173.8125 522.964844 185.691406 511.082031 200.300781 511.082031 C 201.546875 511.082031 202.796875 511.1875 204.136719 511.410156 C 207.875 499.761719 218.605469 491.8125 231.003906 491.8125 C 235.617188 491.8125 240.097656 492.921875 244.132812 495.039062 C 249.640625 481.464844 262.636719 472.542969 277.363281 472.542969 C 278.695312 472.542969 279.773438 473.621094 279.773438 474.949219 C 279.773438 476.28125 278.695312 477.359375 277.363281 477.359375 C 263.746094 477.359375 251.839844 486.195312 247.714844 499.328125 C 247.484375 500.050781 246.925781 500.628906 246.210938 500.878906 C 245.480469 501.121094 244.710938 501.035156 244.066406 500.609375 C 240.191406 498 235.675781 496.628906 231.003906 496.628906 C 220.070312 496.628906 210.6875 504.089844 208.191406 514.773438 C 208.046875 515.398438 207.652344 515.949219 207.101562 516.277344 C 206.5625 516.625 205.890625 516.71875 205.273438 516.566406 C 203.414062 516.113281 201.824219 515.902344 200.292969 515.902344 C 188.339844 515.902344 178.621094 525.625 178.621094 537.582031 C 178.628906 538.910156 177.550781 539.988281 176.21875 539.988281 Z M 397.773438 511.082031 C 396.445312 511.082031 395.367188 510.003906 395.367188 508.675781 C 395.367188 496.71875 407.792969 486.996094 423.0625 486.996094 C 426.597656 486.996094 430.757812 487.8125 433.472656 488.585938 C 434.753906 488.949219 435.496094 490.28125 435.140625 491.5625 C 434.785156 492.84375 433.425781 493.585938 432.164062 493.230469 C 429.871094 492.574219 426.105469 491.8125 423.0625 491.8125 C 410.441406 491.8125 400.183594 499.375 400.183594 508.675781 C 400.183594 510.003906 399.105469 511.082031 397.773438 511.082031 Z M 397.773438 511.082031 " fill-opacity="1" fill-rule="nonzero"/>
    <path fill="rgb(100%, 100%, 100%)" d="M 785.496094 356.917969 L 756.597656 356.917969 C 753.9375 356.917969 751.78125 354.757812 751.78125 352.097656 C 751.78125 349.441406 753.9375 347.28125 756.597656 347.28125 L 785.496094 347.28125 C 788.15625 347.28125 790.3125 349.441406 790.3125 352.097656 C 790.3125 354.757812 788.15625 356.917969 785.496094 356.917969 Z M 708.433594 395.457031 L 698.800781 395.457031 C 696.140625 395.457031 693.984375 393.300781 693.984375 390.640625 C 693.984375 387.980469 696.140625 385.824219 698.800781 385.824219 L 708.433594 385.824219 C 711.09375 385.824219 713.25 387.980469 713.25 390.640625 C 713.25 393.300781 711.09375 395.457031 708.433594 395.457031 Z M 737.332031 395.457031 L 727.699219 395.457031 C 725.039062 395.457031 722.882812 393.300781 722.882812 390.640625 C 722.882812 387.980469 725.039062 385.824219 727.699219 385.824219 L 737.332031 385.824219 C 739.992188 385.824219 742.148438 387.980469 742.148438 390.640625 C 742.148438 393.300781 739.992188 395.457031 737.332031 395.457031 Z M 775.863281 395.457031 L 756.597656 395.457031 C 753.9375 395.457031 751.78125 393.300781 751.78125 390.640625 C 751.78125 387.980469 753.9375 385.824219 756.597656 385.824219 L 775.863281 385.824219 C 778.523438 385.824219 780.679688 387.980469 780.679688 390.640625 C 780.679688 393.300781 778.523438 395.457031 775.863281 395.457031 Z M 766.230469 414.730469 L 746.964844 414.730469 C 744.304688 414.730469 742.148438 412.570312 742.148438 409.910156 C 742.148438 407.253906 744.304688 405.09375 746.964844 405.09375 L 766.230469 405.09375 C 768.890625 405.09375 771.046875 407.253906 771.046875 409.910156 C 771.046875 412.570312 768.890625 414.730469 766.230469 414.730469 Z M 795.128906 376.1875 L 669.902344 376.1875 C 667.242188 376.1875 665.085938 374.027344 665.085938 371.371094 C 665.085938 368.710938 667.242188 366.550781 669.902344 366.550781 L 795.128906 366.550781 C 797.789062 366.550781 799.945312 368.710938 799.945312 371.371094 C 799.945312 374.027344 797.789062 376.1875 795.128906 376.1875 Z M 795.128906 376.1875 " fill-opacity="1" fill-rule="nonzero"/>
    <path fill="rgb(74.119568%, 59.21936%, 48.629761%)" d="M 578.390625 183.480469 L 470.65625 183.480469 C 466.679688 194.683594 456.09375 202.75 443.53125 202.75 C 430.96875 202.75 420.382812 194.683594 416.40625 183.480469 L 308.671875 183.480469 C 292.710938 183.480469 279.773438 196.417969 279.773438 212.386719 L 279.773438 578.53125 C 279.773438 594.496094 292.710938 607.4375 308.671875 607.4375 L 578.390625 607.4375 C 594.351562 607.4375 607.289062 594.496094 607.289062 578.53125 L 607.289062 212.386719 C 607.289062 196.417969 594.351562 183.480469 578.390625 183.480469 Z M 578.390625 183.480469 " fill-opacity="1" fill-rule="nonzero"/>
    <path fill="rgb(27.839661%, 16.859436%, 16.079712%)" d="M 308.671875 173.84375 L 405 173.84375 L 405 187.332031 L 308.671875 187.332031 C 294.839844 187.332031 283.625 198.550781 283.625 212.386719 L 283.625 578.53125 C 283.625 592.367188 294.839844 603.582031 308.671875 603.582031 L 549.492188 603.582031 L 549.492188 617.074219 L 308.671875 617.074219 C 287.394531 617.074219 270.140625 599.816406 270.140625 578.53125 L 270.140625 212.386719 C 270.140625 191.101562 287.394531 173.84375 308.671875 173.84375 Z M 308.671875 173.84375 " fill-opacity="1" fill-rule="nonzero"/>
    <path fill="rgb(92.939758%, 96.859741%, 96.078491%)" d="M 312.285156 216 L 578.390625 216 L 578.390625 574.917969 L 312.285156 574.917969 Z M 312.285156 216 " fill-opacity="1" fill-rule="nonzero"/>
    <path fill="rgb(27.839661%, 16.859436%, 16.079712%)" d="M 574.777344 212.386719 L 312.285156 212.386719 C 310.289062 212.386719 308.671875 214.003906 308.671875 216 L 308.671875 574.917969 C 308.671875 576.914062 310.289062 578.53125 312.285156 578.53125 L 430.285156 578.53125 C 432.28125 578.53125 433.898438 576.914062 433.898438 574.917969 C 433.898438 572.921875 432.28125 571.304688 430.285156 571.304688 L 315.894531 571.304688 L 315.894531 219.613281 L 571.164062 219.613281 L 571.164062 266.585938 C 571.164062 268.578125 572.785156 270.199219 574.777344 270.199219 C 576.773438 270.199219 578.390625 268.578125 578.390625 266.585938 L 578.390625 216 C 578.390625 214.003906 576.773438 212.386719 574.777344 212.386719 Z M 574.777344 212.386719 " fill-opacity="1" fill-rule="nonzero"/>
    <path fill="rgb(27.839661%, 16.859436%, 16.079712%)" d="M 603.4375 212.386719 L 603.4375 382.449219 C 608.109375 384.648438 612.617188 387.113281 616.921875 389.890625 L 616.921875 212.386719 C 616.921875 191.101562 599.667969 173.84375 578.390625 173.84375 L 482.0625 173.84375 L 482.0625 187.332031 L 578.390625 187.332031 C 592.222656 187.332031 603.4375 198.550781 603.4375 212.386719 Z M 603.4375 212.386719 " fill-opacity="1" fill-rule="nonzero"/>
    <path fill="rgb(27.839661%, 16.859436%, 16.079712%)" d="M 574.777344 318.375 C 572.785156 318.375 571.164062 316.757812 571.164062 314.761719 L 571.164062 293.082031 C 571.164062 291.085938 572.785156 289.46875 574.777344 289.46875 C 576.773438 289.46875 578.390625 291.085938 578.390625 293.082031 L 578.390625 314.761719 C 578.390625 316.757812 576.773438 318.375 574.777344 318.375 Z M 574.777344 347.28125 C 572.785156 347.28125 571.164062 345.664062 571.164062 343.667969 L 571.164062 331.625 C 571.164062 329.628906 572.785156 328.011719 574.777344 328.011719 C 576.773438 328.011719 578.390625 329.628906 578.390625 331.625 L 578.390625 343.667969 C 578.390625 345.664062 576.773438 347.28125 574.777344 347.28125 Z M 574.777344 347.28125 " fill-opacity="1" fill-rule="nonzero"/>
    <path fill="rgb(88.238525%, 87.838745%, 84.709167%)" d="M 486.398438 178.660156 C 486.582031 177.0625 486.878906 175.492188 486.878906 173.84375 C 486.878906 149.898438 467.46875 130.484375 443.53125 130.484375 C 419.59375 130.484375 400.183594 149.898438 400.183594 173.84375 C 400.183594 175.492188 400.492188 177.0625 400.664062 178.660156 L 361.652344 178.660156 L 361.652344 207.566406 C 361.652344 218.214844 370.273438 226.839844 380.917969 226.839844 L 506.144531 226.839844 C 516.789062 226.839844 525.410156 218.214844 525.410156 207.566406 L 525.410156 178.660156 Z M 443.53125 189.5 C 434.890625 189.5 427.878906 182.488281 427.878906 173.84375 C 427.878906 165.199219 434.890625 158.1875 443.53125 158.1875 C 452.171875 158.1875 459.183594 165.199219 459.183594 173.84375 C 459.183594 182.488281 452.171875 189.5 443.53125 189.5 Z M 443.53125 189.5 " fill-opacity="1" fill-rule="nonzero"/>
    <path fill="rgb(27.839661%, 16.859436%, 16.079712%)" d="M 443.53125 193.113281 C 432.90625 193.113281 424.265625 184.472656 424.265625 173.84375 C 424.265625 163.214844 432.90625 154.574219 443.53125 154.574219 C 454.15625 154.574219 462.796875 163.214844 462.796875 173.84375 C 462.796875 184.472656 454.15625 193.113281 443.53125 193.113281 Z M 443.53125 161.800781 C 436.894531 161.800781 431.488281 167.203125 431.488281 173.84375 C 431.488281 180.484375 436.894531 185.886719 443.53125 185.886719 C 450.167969 185.886719 455.570312 180.484375 455.570312 173.84375 C 455.570312 167.203125 450.167969 161.800781 443.53125 161.800781 Z M 443.53125 161.800781 " fill-opacity="1" fill-rule="nonzero"/>
    <path fill="rgb(27.839661%, 16.859436%, 16.079712%)" d="M 506.144531 231.65625 L 380.917969 231.65625 C 367.644531 231.65625 356.835938 220.84375 356.835938 207.566406 L 356.835938 178.660156 C 356.835938 176.003906 358.992188 173.84375 361.652344 173.84375 L 395.367188 173.84375 C 395.367188 147.277344 416.972656 125.667969 443.53125 125.667969 C 470.089844 125.667969 491.695312 147.277344 491.695312 173.84375 L 525.410156 173.84375 C 528.070312 173.84375 530.226562 176.003906 530.226562 178.660156 L 530.226562 207.566406 C 530.226562 220.84375 519.417969 231.65625 506.144531 231.65625 Z M 366.46875 183.480469 L 366.46875 207.566406 C 366.46875 215.535156 372.953125 222.019531 380.917969 222.019531 L 506.144531 222.019531 C 514.109375 222.019531 520.59375 215.535156 520.59375 207.566406 L 520.59375 183.480469 L 486.878906 183.480469 C 484.21875 183.480469 482.0625 181.320312 482.0625 178.660156 L 482.0625 173.84375 C 482.0625 152.589844 464.78125 135.300781 443.53125 135.300781 C 422.28125 135.300781 405 152.589844 405 173.84375 L 405 178.660156 C 405 181.320312 402.84375 183.480469 400.183594 183.480469 Z M 488.082031 315.964844 L 408.613281 315.964844 C 406.617188 315.964844 405 314.347656 405 312.351562 C 405 310.359375 406.617188 308.738281 408.613281 308.738281 L 488.082031 308.738281 C 490.078125 308.738281 491.695312 310.359375 491.695312 312.351562 C 491.695312 314.347656 490.078125 315.964844 488.082031 315.964844 Z M 536.246094 315.964844 L 504.941406 315.964844 C 502.945312 315.964844 501.328125 314.347656 501.328125 312.351562 C 501.328125 310.359375 502.945312 308.738281 504.941406 308.738281 L 536.246094 308.738281 C 538.242188 308.738281 539.859375 310.359375 539.859375 312.351562 C 539.859375 314.347656 538.242188 315.964844 536.246094 315.964844 Z M 536.246094 337.644531 L 408.613281 337.644531 C 406.617188 337.644531 405 336.027344 405 334.03125 C 405 332.039062 406.617188 330.417969 408.613281 330.417969 L 536.246094 330.417969 C 538.242188 330.417969 539.859375 332.039062 539.859375 334.03125 C 539.859375 336.027344 538.242188 337.644531 536.246094 337.644531 Z M 455.570312 470.132812 L 408.613281 470.132812 C 406.617188 470.132812 405 468.515625 405 466.519531 C 405 464.523438 406.617188 462.90625 408.613281 462.90625 L 455.570312 462.90625 C 457.566406 462.90625 459.183594 464.523438 459.183594 466.519531 C 459.183594 468.515625 457.566406 470.132812 455.570312 470.132812 Z M 449.550781 491.8125 L 408.613281 491.8125 C 406.617188 491.8125 405 490.195312 405 488.199219 C 405 486.203125 406.617188 484.585938 408.613281 484.585938 L 449.550781 484.585938 C 451.546875 484.585938 453.164062 486.203125 453.164062 488.199219 C 453.164062 490.195312 451.546875 491.8125 449.550781 491.8125 Z M 449.550781 491.8125 " fill-opacity="1" fill-rule="nonzero"/>
    <path fill="rgb(99.21875%, 98.81897%, 93.728638%)" d="M 350.816406 312.351562 L 372.488281 312.351562 L 372.488281 334.03125 L 350.816406 334.03125 Z M 350.816406 312.351562 " fill-opacity="1" fill-rule="nonzero"/>
    <path fill="rgb(27.839661%, 16.859436%, 16.079712%)" d="M 372.488281 337.644531 L 350.816406 337.644531 C 348.820312 337.644531 347.203125 336.027344 347.203125 334.03125 L 347.203125 312.351562 C 347.203125 310.359375 348.820312 308.738281 350.816406 308.738281 L 372.488281 308.738281 C 374.484375 308.738281 376.101562 310.359375 376.101562 312.351562 L 376.101562 334.03125 C 376.101562 336.027344 374.484375 337.644531 372.488281 337.644531 Z M 354.425781 330.417969 L 368.875 330.417969 L 368.875 315.964844 L 354.425781 315.964844 Z M 354.425781 330.417969 " fill-opacity="1" fill-rule="nonzero"/>
    <path fill="rgb(99.21875%, 98.81897%, 93.728638%)" d="M 350.816406 466.519531 L 372.488281 466.519531 L 372.488281 488.199219 L 350.816406 488.199219 Z M 350.816406 466.519531 " fill-opacity="1" fill-rule="nonzero"/>
    <path fill="rgb(27.839661%, 16.859436%, 16.079712%)" d="M 372.488281 491.8125 L 350.816406 491.8125 C 348.820312 491.8125 347.203125 490.195312 347.203125 488.199219 L 347.203125 466.519531 C 347.203125 464.523438 348.820312 462.90625 350.816406 462.90625 L 372.488281 462.90625 C 374.484375 462.90625 376.101562 464.523438 376.101562 466.519531 L 376.101562 488.199219 C 376.101562 490.195312 374.484375 491.8125 372.488281 491.8125 Z M 354.425781 484.585938 L 368.875 484.585938 L 368.875 470.132812 L 354.425781 470.132812 Z M 354.425781 484.585938 " fill-opacity="1" fill-rule="nonzero"/>
    <path fill="rgb(99.21875%, 98.81897%, 93.728638%)" d="M 350.816406 389.4375 L 372.488281 389.4375 L 372.488281 411.117188 L 350.816406 411.117188 Z M 350.816406 389.4375 " fill-opacity="1" fill-rule="nonzero"/>
    <path fill="rgb(27.839661%, 16.859436%, 16.079712%)" d="M 372.488281 414.730469 L 350.816406 414.730469 C 348.820312 414.730469 347.203125 413.109375 347.203125 411.117188 L 347.203125 389.4375 C 347.203125 387.441406 348.820312 385.824219 350.816406 385.824219 L 372.488281 385.824219 C 374.484375 385.824219 376.101562 387.441406 376.101562 389.4375 L 376.101562 411.117188 C 376.101562 413.109375 374.484375 414.730469 372.488281 414.730469 Z M 354.425781 407.503906 L 368.875 407.503906 L 368.875 393.050781 L 354.425781 393.050781 Z M 536.246094 393.050781 L 408.613281 393.050781 C 406.617188 393.050781 405 391.429688 405 389.4375 C 405 387.441406 406.617188 385.824219 408.613281 385.824219 L 536.246094 385.824219 C 538.242188 385.824219 539.859375 387.441406 539.859375 389.4375 C 539.859375 391.429688 538.242188 393.050781 536.246094 393.050781 Z M 495.308594 414.730469 L 408.613281 414.730469 C 406.617188 414.730469 405 413.109375 405 411.117188 C 405 409.121094 406.617188 407.503906 408.613281 407.503906 L 495.308594 407.503906 C 497.300781 407.503906 498.917969 409.121094 498.917969 411.117188 C 498.917969 413.109375 497.300781 414.730469 495.308594 414.730469 Z M 495.308594 414.730469 " fill-opacity="1" fill-rule="nonzero"/>
    <path fill="rgb(54.899597%, 82.749939%, 84.309387%)" d="M 650.636719 486.996094 C 650.636719 516.285156 637.535156 542.496094 616.921875 560.222656 L 616.921875 413.765625 C 637.535156 431.496094 650.636719 457.703125 650.636719 486.996094 Z M 650.636719 486.996094 " fill-opacity="1" fill-rule="nonzero"/>
    <path fill="rgb(56.858826%, 83.529663%, 85.099792%)" d="M 607.289062 406.539062 L 607.289062 567.449219 C 592.070312 577.472656 573.863281 583.347656 554.308594 583.347656 C 501.136719 583.347656 457.980469 540.183594 457.980469 486.996094 C 457.980469 433.808594 501.136719 390.640625 554.308594 390.640625 C 573.863281 390.640625 592.070312 396.519531 607.289062 406.539062 Z M 607.289062 406.539062 " fill-opacity="1" fill-rule="nonzero"/>
    <path fill="rgb(41.569519%, 63.139343%, 65.098572%)" d="M 488.082031 470.132812 L 456.777344 470.132812 C 454.78125 470.132812 453.164062 468.515625 453.164062 466.519531 C 453.164062 464.523438 454.78125 462.90625 456.777344 462.90625 L 488.082031 462.90625 C 490.078125 462.90625 491.695312 464.523438 491.695312 466.519531 C 491.695312 468.515625 490.078125 470.132812 488.082031 470.132812 Z M 536.246094 470.132812 L 504.941406 470.132812 C 502.945312 470.132812 501.328125 468.515625 501.328125 466.519531 C 501.328125 464.523438 502.945312 462.90625 504.941406 462.90625 L 536.246094 462.90625 C 538.242188 462.90625 539.859375 464.523438 539.859375 466.519531 C 539.859375 468.515625 538.242188 470.132812 536.246094 470.132812 Z M 536.246094 414.730469 L 495.308594 414.730469 C 493.3125 414.730469 491.695312 413.109375 491.695312 411.117188 C 491.695312 409.121094 493.3125 407.503906 495.308594 407.503906 L 536.246094 407.503906 C 538.242188 407.503906 539.859375 409.121094 539.859375 411.117188 C 539.859375 413.109375 538.242188 414.730469 536.246094 414.730469 Z M 536.246094 491.8125 L 456.777344 491.8125 C 454.78125 491.8125 453.164062 490.195312 453.164062 488.199219 C 453.164062 486.203125 454.78125 484.585938 456.777344 484.585938 L 536.246094 484.585938 C 538.242188 484.585938 539.859375 486.203125 539.859375 488.199219 C 539.859375 490.195312 538.242188 491.8125 536.246094 491.8125 Z M 536.246094 491.8125 " fill-opacity="1" fill-rule="nonzero"/>
    <path fill="rgb(99.21875%, 98.81897%, 93.728638%)" d="M 554.308594 366.550781 C 487.804688 366.550781 433.898438 420.472656 433.898438 486.996094 C 433.898438 553.519531 487.804688 607.4375 554.308594 607.4375 C 620.8125 607.4375 674.71875 553.519531 674.71875 486.996094 C 674.71875 420.472656 620.8125 366.550781 554.308594 366.550781 Z M 554.308594 578.53125 C 503.765625 578.53125 462.796875 537.550781 462.796875 486.996094 C 462.796875 436.4375 503.765625 395.457031 554.308594 395.457031 C 604.851562 395.457031 645.820312 436.4375 645.820312 486.996094 C 645.820312 537.550781 604.851562 578.53125 554.308594 578.53125 Z M 554.308594 578.53125 " fill-opacity="1" fill-rule="nonzero"/>
    <path fill="rgb(41.569519%, 63.139343%, 65.098572%)" d="M 616.921875 413.765625 L 616.921875 560.128906 C 612.683594 563.789062 608.253906 566.96875 603.4375 569.761719 L 603.4375 404.128906 C 608.253906 406.925781 612.78125 410.199219 616.921875 413.765625 Z M 616.921875 413.765625 " fill-opacity="1" fill-rule="nonzero"/>
    <path fill="rgb(53.729248%, 74.119568%, 73.329163%)" d="M 578.390625 393.878906 L 578.390625 580.265625 C 587.347656 577.953125 595.730469 574.386719 603.4375 569.761719 L 603.4375 404.128906 C 595.738281 399.5625 587.300781 396.160156 578.390625 393.878906 Z M 578.390625 393.878906 " fill-opacity="1" fill-rule="nonzero"/>
    <path fill="rgb(41.569519%, 63.139343%, 65.098572%)" d="M 578.390625 428.027344 L 578.390625 580.265625 C 577.136719 580.652344 575.980469 580.941406 574.730469 581.132812 C 573.574219 581.421875 572.417969 581.613281 571.164062 581.808594 L 571.164062 428.027344 C 571.164062 426.003906 572.804688 424.363281 574.730469 424.363281 C 576.753906 424.363281 578.390625 426.003906 578.390625 428.027344 Z M 578.390625 428.027344 " fill-opacity="1" fill-rule="nonzero"/>
    <path fill="rgb(27.839661%, 16.859436%, 16.079712%)" d="M 554.308594 366.550781 C 620.707031 366.550781 674.71875 420.578125 674.71875 486.996094 C 674.71875 553.410156 620.707031 607.4375 554.308594 607.4375 C 487.910156 607.4375 433.898438 553.410156 433.898438 486.996094 C 433.898438 420.578125 487.910156 366.550781 554.308594 366.550781 Z M 554.308594 356.917969 C 482.484375 356.917969 424.265625 415.152344 424.265625 486.996094 C 424.265625 558.835938 482.484375 617.074219 554.308594 617.074219 C 626.128906 617.074219 684.351562 558.835938 684.351562 486.996094 C 684.351562 415.152344 626.128906 356.917969 554.308594 356.917969 Z M 554.308594 356.917969 " fill-opacity="1" fill-rule="nonzero"/>
    <path fill="rgb(27.839661%, 16.859436%, 16.079712%)" d="M 554.308594 395.457031 C 604.765625 395.457031 645.820312 436.523438 645.820312 486.996094 C 645.820312 537.464844 604.765625 578.53125 554.308594 578.53125 C 503.851562 578.53125 462.796875 537.464844 462.796875 486.996094 C 462.796875 436.523438 503.851562 395.457031 554.308594 395.457031 Z M 554.308594 385.824219 C 498.449219 385.824219 453.164062 431.117188 453.164062 486.996094 C 453.164062 542.871094 498.449219 588.167969 554.308594 588.167969 C 610.167969 588.167969 655.453125 542.871094 655.453125 486.996094 C 655.453125 431.117188 610.167969 385.824219 554.308594 385.824219 Z M 554.308594 385.824219 " fill-opacity="1" fill-rule="nonzero"/>
    <path fill="rgb(27.839661%, 16.859436%, 16.079712%)" d="M 435.300781 599.210938 L 464.203125 570.300781 L 471.015625 577.117188 L 442.113281 606.023438 Z M 435.300781 599.210938 " fill-opacity="1" fill-rule="nonzero"/>
    <path fill="rgb(53.329468%, 68.238831%, 27.059937%)" d="M 439.878906 601.453125 C 428.589844 590.160156 410.296875 590.160156 399.007812 601.453125 C 391.503906 608.960938 329.46875 671.011719 321.945312 678.539062 C 310.65625 689.828125 310.65625 708.128906 321.945312 719.421875 C 333.234375 730.714844 351.527344 730.714844 362.816406 719.421875 C 370.339844 711.894531 432.375 649.84375 439.878906 642.335938 C 451.171875 631.042969 451.171875 612.738281 439.878906 601.453125 Z M 439.878906 601.453125 " fill-opacity="1" fill-rule="nonzero"/>
    <path fill="rgb(81.959534%, 86.268616%, 50.979614%)" d="M 439.878906 642.328125 C 451.171875 631.035156 451.171875 612.738281 439.878906 601.445312 C 428.589844 590.152344 410.296875 590.152344 399.007812 601.445312 Z M 439.878906 642.328125 " fill-opacity="1" fill-rule="nonzero"/>
    <path fill="rgb(27.839661%, 16.859436%, 16.079712%)" d="M 395.597656 604.851562 L 402.40625 598.039062 L 443.269531 638.910156 L 436.457031 645.722656 Z M 395.597656 604.851562 " fill-opacity="1" fill-rule="nonzero"/>
    <path fill="rgb(27.839661%, 16.859436%, 16.079712%)" d="M 355.632812 674.886719 C 355.121094 674.886719 354.640625 674.558594 354.484375 674.046875 L 347.261719 651.164062 C 347.058594 650.527344 347.414062 649.851562 348.050781 649.648438 C 348.726562 649.449219 349.371094 649.804688 349.5625 650.441406 L 356.789062 673.324219 C 356.988281 673.960938 356.632812 674.636719 355.996094 674.835938 C 355.871094 674.867188 355.746094 674.886719 355.632812 674.886719 Z M 352.714844 703.792969 C 352.203125 703.792969 351.722656 703.464844 351.566406 702.953125 L 338.265625 660.796875 C 338.0625 660.164062 338.417969 659.488281 339.054688 659.285156 C 339.71875 659.082031 340.375 659.449219 340.566406 660.074219 L 353.867188 702.230469 C 354.070312 702.867188 353.714844 703.542969 353.078125 703.742188 C 352.953125 703.773438 352.828125 703.792969 352.714844 703.792969 Z M 348.273438 727.859375 C 347.761719 727.859375 347.28125 727.535156 347.125 727.023438 L 328.921875 669.363281 C 328.71875 668.726562 329.074219 668.054688 329.710938 667.851562 C 330.382812 667.660156 331.03125 668.003906 331.222656 668.640625 L 349.429688 726.300781 C 349.628906 726.9375 349.273438 727.609375 348.636719 727.8125 C 348.511719 727.839844 348.398438 727.859375 348.273438 727.859375 Z M 336.230469 727.859375 C 335.722656 727.859375 335.238281 727.535156 335.085938 727.023438 L 320.222656 679.933594 C 320.019531 679.296875 320.375 678.625 321.011719 678.421875 C 321.667969 678.230469 322.320312 678.574219 322.523438 679.210938 L 337.386719 726.300781 C 337.589844 726.9375 337.234375 727.609375 336.597656 727.8125 C 336.472656 727.839844 336.355469 727.859375 336.230469 727.859375 Z M 336.230469 727.859375 " fill-opacity="1" fill-rule="nonzero"/>
    <path fill="rgb(27.839661%, 16.859436%, 16.079712%)" d="M 342.386719 732.699219 C 333.378906 732.699219 324.914062 729.191406 318.546875 722.820312 C 312.179688 716.453125 308.671875 707.984375 308.671875 698.972656 C 308.671875 689.964844 312.179688 681.496094 318.546875 675.125 L 395.609375 598.042969 C 408.324219 585.304688 430.535156 585.296875 443.28125 598.042969 C 449.65625 604.421875 453.164062 612.882812 453.164062 621.890625 C 453.164062 630.898438 449.65625 639.371094 443.289062 645.738281 L 366.226562 722.820312 C 359.859375 729.191406 351.394531 732.699219 342.386719 732.699219 Z M 419.449219 597.800781 C 413.023438 597.800781 406.976562 600.308594 402.417969 604.855469 L 325.355469 681.9375 C 320.808594 686.496094 318.304688 692.546875 318.304688 698.972656 C 318.304688 705.402344 320.808594 711.453125 325.355469 716.007812 C 334.449219 725.105469 350.316406 725.105469 359.40625 716.007812 L 436.46875 638.925781 C 441.027344 634.367188 443.53125 628.316406 443.53125 621.890625 C 443.53125 615.464844 441.027344 609.414062 436.480469 604.855469 C 431.921875 600.308594 425.875 597.800781 419.449219 597.800781 Z M 419.449219 597.800781 " fill-opacity="1" fill-rule="nonzero"/>
    <path fill="rgb(99.21875%, 98.81897%, 93.728638%)" d="M 689.167969 660.433594 L 732.515625 660.433594 C 751.136719 660.433594 766.230469 645.332031 766.230469 626.707031 C 766.230469 609.230469 752.890625 595.027344 735.867188 593.320312 C 736.726562 590.121094 737.332031 586.816406 737.332031 583.347656 C 737.332031 562.0625 720.078125 544.808594 698.800781 544.808594 C 686.605469 544.808594 675.855469 550.589844 668.792969 559.433594 C 664.46875 540.058594 647.238281 525.535156 626.554688 525.535156 C 602.617188 525.535156 583.207031 544.953125 583.207031 568.894531 C 583.207031 569.898438 583.4375 570.84375 583.503906 571.824219 C 578.34375 567.054688 571.511719 564.078125 563.941406 564.078125 C 547.980469 564.078125 535.042969 577.019531 535.042969 592.984375 C 535.042969 594.207031 535.253906 595.363281 535.398438 596.550781 C 530.910156 594.34375 525.929688 592.984375 520.59375 592.984375 C 501.972656 592.984375 486.878906 608.082031 486.878906 626.707031 C 486.878906 645.332031 501.972656 660.433594 520.59375 660.433594 C 539.214844 660.433594 612.105469 660.433594 612.105469 660.433594 L 612.105469 665.25 L 689.167969 665.25 Z M 689.167969 660.433594 " fill-opacity="1" fill-rule="nonzero"/>
    <path fill="rgb(27.839661%, 16.859436%, 16.079712%)" d="M 732.515625 665.25 L 689.167969 665.25 C 686.507812 665.25 684.351562 663.089844 684.351562 660.433594 C 684.351562 657.773438 686.507812 655.613281 689.167969 655.613281 L 732.515625 655.613281 C 748.449219 655.613281 761.414062 642.644531 761.414062 626.707031 C 761.414062 611.890625 750.21875 599.605469 735.386719 598.121094 C 733.980469 597.976562 732.707031 597.222656 731.898438 596.066406 C 731.097656 594.902344 730.847656 593.445312 731.214844 592.078125 C 732.101562 588.773438 732.515625 586 732.515625 583.347656 C 732.515625 564.753906 717.390625 549.625 698.800781 549.625 C 688.628906 549.625 679.0625 554.296875 672.5625 562.449219 C 671.40625 563.894531 669.496094 564.539062 667.714844 564.136719 C 665.90625 563.722656 664.5 562.304688 664.101562 560.492188 C 660.144531 542.746094 644.703125 530.355469 626.554688 530.355469 C 605.304688 530.355469 588.023438 547.640625 588.023438 568.894531 C 588.023438 569.261719 588.082031 569.609375 588.128906 569.957031 C 588.195312 570.464844 588.265625 570.976562 588.304688 571.496094 C 588.4375 573.464844 587.347656 575.3125 585.566406 576.160156 C 583.792969 577.007812 581.664062 576.699219 580.222656 575.351562 C 575.722656 571.1875 569.941406 568.894531 563.941406 568.894531 C 550.667969 568.894531 539.859375 579.707031 539.859375 592.984375 C 539.859375 593.699219 539.964844 594.382812 540.0625 595.054688 C 540.300781 596.820312 539.609375 598.996094 538.164062 600.039062 C 536.71875 601.078125 534.871094 601.65625 533.269531 600.867188 C 529.136719 598.832031 524.871094 597.800781 520.59375 597.800781 C 504.660156 597.800781 491.695312 610.769531 491.695312 626.707031 C 491.695312 642.644531 504.660156 655.613281 520.59375 655.613281 L 612.105469 655.613281 C 614.765625 655.613281 616.921875 657.773438 616.921875 660.433594 C 616.921875 663.089844 614.773438 665.25 612.105469 665.25 L 520.59375 665.25 C 499.34375 665.25 482.0625 647.964844 482.0625 626.707031 C 482.0625 605.453125 499.34375 588.167969 520.59375 588.167969 C 523.898438 588.167969 527.183594 588.609375 530.410156 589.507812 C 532.152344 572.539062 546.523438 559.261719 563.941406 559.261719 C 569.125 559.261719 574.179688 560.472656 578.785156 562.757812 C 581.800781 539.082031 602.078125 520.71875 626.554688 520.71875 C 646.378906 520.71875 663.613281 532.542969 670.953125 550.308594 C 678.714844 543.679688 688.511719 539.988281 698.800781 539.988281 C 722.699219 539.988281 742.148438 559.445312 742.148438 583.347656 C 742.148438 585.332031 741.984375 587.328125 741.636719 589.429688 C 758.734375 593.542969 771.046875 608.730469 771.046875 626.707031 C 771.046875 647.964844 753.765625 665.25 732.515625 665.25 Z M 732.515625 665.25 " fill-opacity="1" fill-rule="nonzero"/>
    <path fill="rgb(27.839661%, 16.859436%, 16.079712%)" d="M 631.371094 655.613281 C 631.054688 655.613281 630.742188 655.644531 630.429688 655.707031 C 630.121094 655.769531 629.820312 655.859375 629.527344 655.980469 C 629.234375 656.101562 628.957031 656.25 628.695312 656.425781 C 628.433594 656.601562 628.1875 656.800781 627.964844 657.027344 C 627.742188 657.25 627.542969 657.492188 627.367188 657.753906 C 627.191406 658.019531 627.042969 658.296875 626.921875 658.589844 C 626.800781 658.878906 626.707031 659.183594 626.648438 659.492188 C 626.585938 659.800781 626.554688 660.117188 626.554688 660.433594 C 626.554688 660.75 626.585938 661.0625 626.648438 661.371094 C 626.707031 661.683594 626.800781 661.984375 626.921875 662.277344 C 627.042969 662.566406 627.191406 662.847656 627.367188 663.109375 C 627.542969 663.371094 627.742188 663.613281 627.964844 663.839844 C 628.1875 664.0625 628.433594 664.261719 628.695312 664.4375 C 628.957031 664.613281 629.234375 664.761719 629.527344 664.882812 C 629.820312 665.003906 630.121094 665.09375 630.429688 665.15625 C 630.742188 665.21875 631.054688 665.25 631.371094 665.25 C 631.6875 665.25 632 665.21875 632.3125 665.15625 C 632.621094 665.09375 632.921875 665.003906 633.214844 664.882812 C 633.507812 664.761719 633.785156 664.613281 634.046875 664.4375 C 634.308594 664.261719 634.554688 664.0625 634.777344 663.839844 C 635 663.613281 635.199219 663.371094 635.375 663.109375 C 635.550781 662.847656 635.699219 662.566406 635.820312 662.277344 C 635.941406 661.984375 636.03125 661.683594 636.09375 661.371094 C 636.15625 661.0625 636.1875 660.75 636.1875 660.433594 C 636.1875 660.117188 636.15625 659.800781 636.09375 659.492188 C 636.03125 659.183594 635.941406 658.878906 635.820312 658.589844 C 635.699219 658.296875 635.550781 658.019531 635.375 657.753906 C 635.199219 657.492188 635 657.25 634.777344 657.027344 C 634.554688 656.800781 634.308594 656.601562 634.046875 656.425781 C 633.785156 656.25 633.507812 656.101562 633.214844 655.980469 C 632.921875 655.859375 632.621094 655.769531 632.3125 655.707031 C 632 655.644531 631.6875 655.613281 631.371094 655.613281 Z M 660.269531 665.25 L 650.636719 665.25 C 647.976562 665.25 645.820312 663.089844 645.820312 660.433594 C 645.820312 657.773438 647.976562 655.613281 650.636719 655.613281 L 660.269531 655.613281 C 662.929688 655.613281 665.085938 657.773438 665.085938 660.433594 C 665.085938 663.089844 662.929688 665.25 660.269531 665.25 Z M 706.023438 617.074219 C 704.695312 617.074219 703.617188 615.992188 703.617188 614.664062 C 703.617188 602.601562 716.535156 593.15625 733.027344 593.15625 C 734.328125 593.15625 739.902344 593.535156 743.015625 594.726562 C 744.257812 595.199219 744.875 596.597656 744.402344 597.839844 C 743.929688 599.082031 742.542969 599.710938 741.292969 599.226562 C 739.171875 598.417969 734.480469 597.984375 733.027344 597.984375 C 719.464844 597.984375 708.433594 605.472656 708.433594 614.671875 C 708.433594 615.992188 707.355469 617.074219 706.023438 617.074219 Z M 706.023438 617.074219 " fill-opacity="1" fill-rule="nonzero"/>
</svg>